<mxfile host="Electron" agent="Mozilla/5.0 (Windows NT 10.0; Win64; x64) AppleWebKit/537.36 (KHTML, like Gecko) draw.io/27.0.9 Chrome/134.0.6998.205 Electron/35.4.0 Safari/537.36" version="27.0.9">
  <diagram name="Page-1" id="Kr4vf-RYcGseJKK2NIiY">
    <mxGraphModel dx="1389" dy="963" grid="1" gridSize="10" guides="1" tooltips="1" connect="1" arrows="1" fold="1" page="1" pageScale="1" pageWidth="1100" pageHeight="850" math="0" shadow="0">
      <root>
        <mxCell id="0" />
        <mxCell id="1" parent="0" />
        <mxCell id="3AcVwT8jO_-NW-0-wbM--1" value="" style="rounded=0;whiteSpace=wrap;html=1;" vertex="1" parent="1">
          <mxGeometry x="140" y="310" width="160" height="40" as="geometry" />
        </mxCell>
        <mxCell id="3AcVwT8jO_-NW-0-wbM--3" value="EMPLOYEE" style="text;html=1;align=center;verticalAlign=middle;whiteSpace=wrap;rounded=0;" vertex="1" parent="1">
          <mxGeometry x="180" y="315" width="80" height="30" as="geometry" />
        </mxCell>
        <mxCell id="3AcVwT8jO_-NW-0-wbM--4" value="" style="ellipse;whiteSpace=wrap;html=1;" vertex="1" parent="1">
          <mxGeometry x="60" y="220" width="120" height="50" as="geometry" />
        </mxCell>
        <mxCell id="3AcVwT8jO_-NW-0-wbM--5" value="" style="ellipse;whiteSpace=wrap;html=1;" vertex="1" parent="1">
          <mxGeometry x="130" y="150" width="120" height="50" as="geometry" />
        </mxCell>
        <mxCell id="3AcVwT8jO_-NW-0-wbM--6" value="AadharNo." style="text;html=1;align=center;verticalAlign=middle;whiteSpace=wrap;rounded=0;" vertex="1" parent="1">
          <mxGeometry x="80" y="230" width="80" height="30" as="geometry" />
        </mxCell>
        <mxCell id="3AcVwT8jO_-NW-0-wbM--7" value="BDate" style="text;html=1;align=center;verticalAlign=middle;whiteSpace=wrap;rounded=0;" vertex="1" parent="1">
          <mxGeometry x="150" y="160" width="80" height="30" as="geometry" />
        </mxCell>
        <mxCell id="3AcVwT8jO_-NW-0-wbM--8" value="" style="ellipse;whiteSpace=wrap;html=1;" vertex="1" parent="1">
          <mxGeometry x="210" y="220" width="120" height="50" as="geometry" />
        </mxCell>
        <mxCell id="3AcVwT8jO_-NW-0-wbM--9" value="Name" style="text;html=1;align=center;verticalAlign=middle;whiteSpace=wrap;rounded=0;" vertex="1" parent="1">
          <mxGeometry x="230" y="230" width="80" height="30" as="geometry" />
        </mxCell>
        <mxCell id="3AcVwT8jO_-NW-0-wbM--12" value="" style="ellipse;whiteSpace=wrap;html=1;" vertex="1" parent="1">
          <mxGeometry x="60" y="390" width="120" height="50" as="geometry" />
        </mxCell>
        <mxCell id="3AcVwT8jO_-NW-0-wbM--13" value="Address" style="text;html=1;align=center;verticalAlign=middle;whiteSpace=wrap;rounded=0;" vertex="1" parent="1">
          <mxGeometry x="80" y="400" width="80" height="30" as="geometry" />
        </mxCell>
        <mxCell id="3AcVwT8jO_-NW-0-wbM--14" value="" style="ellipse;whiteSpace=wrap;html=1;" vertex="1" parent="1">
          <mxGeometry x="130" y="450" width="120" height="50" as="geometry" />
        </mxCell>
        <mxCell id="3AcVwT8jO_-NW-0-wbM--15" value="Salary" style="text;html=1;align=center;verticalAlign=middle;whiteSpace=wrap;rounded=0;" vertex="1" parent="1">
          <mxGeometry x="150" y="460" width="80" height="30" as="geometry" />
        </mxCell>
        <mxCell id="3AcVwT8jO_-NW-0-wbM--16" value="" style="ellipse;whiteSpace=wrap;html=1;" vertex="1" parent="1">
          <mxGeometry x="210" y="395" width="110" height="40" as="geometry" />
        </mxCell>
        <mxCell id="3AcVwT8jO_-NW-0-wbM--17" value="Sex" style="text;html=1;align=center;verticalAlign=middle;whiteSpace=wrap;rounded=0;" vertex="1" parent="1">
          <mxGeometry x="225" y="400" width="80" height="30" as="geometry" />
        </mxCell>
        <mxCell id="3AcVwT8jO_-NW-0-wbM--20" value="" style="rhombus;whiteSpace=wrap;html=1;" vertex="1" parent="1">
          <mxGeometry x="440" y="210" width="200" height="80" as="geometry" />
        </mxCell>
        <mxCell id="3AcVwT8jO_-NW-0-wbM--21" value="" style="rhombus;whiteSpace=wrap;html=1;" vertex="1" parent="1">
          <mxGeometry x="440" y="370" width="200" height="80" as="geometry" />
        </mxCell>
        <mxCell id="3AcVwT8jO_-NW-0-wbM--32" value="" style="rounded=0;whiteSpace=wrap;html=1;" vertex="1" parent="1">
          <mxGeometry x="780" y="310" width="160" height="40" as="geometry" />
        </mxCell>
        <mxCell id="3AcVwT8jO_-NW-0-wbM--33" value="DEPARTMENT" style="text;html=1;align=center;verticalAlign=middle;whiteSpace=wrap;rounded=0;" vertex="1" parent="1">
          <mxGeometry x="820" y="315" width="80" height="30" as="geometry" />
        </mxCell>
        <mxCell id="3AcVwT8jO_-NW-0-wbM--34" value="" style="ellipse;whiteSpace=wrap;html=1;" vertex="1" parent="1">
          <mxGeometry x="700" y="220" width="120" height="50" as="geometry" />
        </mxCell>
        <mxCell id="3AcVwT8jO_-NW-0-wbM--36" value="&lt;u&gt;Name&lt;/u&gt;" style="text;html=1;align=center;verticalAlign=middle;whiteSpace=wrap;rounded=0;" vertex="1" parent="1">
          <mxGeometry x="720" y="230" width="80" height="30" as="geometry" />
        </mxCell>
        <mxCell id="3AcVwT8jO_-NW-0-wbM--38" value="" style="ellipse;whiteSpace=wrap;html=1;" vertex="1" parent="1">
          <mxGeometry x="920" y="220" width="120" height="50" as="geometry" />
        </mxCell>
        <mxCell id="3AcVwT8jO_-NW-0-wbM--39" value="&lt;u&gt;Number&lt;/u&gt;" style="text;html=1;align=center;verticalAlign=middle;whiteSpace=wrap;rounded=0;" vertex="1" parent="1">
          <mxGeometry x="940" y="230" width="80" height="30" as="geometry" />
        </mxCell>
        <mxCell id="3AcVwT8jO_-NW-0-wbM--48" value="" style="ellipse;whiteSpace=wrap;html=1;" vertex="1" parent="1">
          <mxGeometry x="780" y="150" width="180" height="60" as="geometry" />
        </mxCell>
        <mxCell id="3AcVwT8jO_-NW-0-wbM--49" value="" style="ellipse;whiteSpace=wrap;html=1;" vertex="1" parent="1">
          <mxGeometry x="790" y="155" width="160" height="50" as="geometry" />
        </mxCell>
        <mxCell id="3AcVwT8jO_-NW-0-wbM--50" value="BDate" style="text;html=1;align=center;verticalAlign=middle;whiteSpace=wrap;rounded=0;" vertex="1" parent="1">
          <mxGeometry x="830" y="165" width="80" height="30" as="geometry" />
        </mxCell>
        <mxCell id="3AcVwT8jO_-NW-0-wbM--51" value="" style="rhombus;whiteSpace=wrap;html=1;" vertex="1" parent="1">
          <mxGeometry x="760" y="390" width="200" height="80" as="geometry" />
        </mxCell>
        <mxCell id="3AcVwT8jO_-NW-0-wbM--54" value="" style="rounded=0;whiteSpace=wrap;html=1;" vertex="1" parent="1">
          <mxGeometry x="780" y="510" width="160" height="40" as="geometry" />
        </mxCell>
        <mxCell id="3AcVwT8jO_-NW-0-wbM--55" value="PROJECT" style="text;html=1;align=center;verticalAlign=middle;whiteSpace=wrap;rounded=0;" vertex="1" parent="1">
          <mxGeometry x="820" y="515" width="80" height="30" as="geometry" />
        </mxCell>
        <mxCell id="3AcVwT8jO_-NW-0-wbM--58" value="" style="ellipse;whiteSpace=wrap;html=1;" vertex="1" parent="1">
          <mxGeometry x="660" y="580" width="120" height="50" as="geometry" />
        </mxCell>
        <mxCell id="3AcVwT8jO_-NW-0-wbM--59" value="&lt;u&gt;Name&lt;/u&gt;" style="text;html=1;align=center;verticalAlign=middle;whiteSpace=wrap;rounded=0;" vertex="1" parent="1">
          <mxGeometry x="680" y="590" width="80" height="30" as="geometry" />
        </mxCell>
        <mxCell id="3AcVwT8jO_-NW-0-wbM--60" value="" style="ellipse;whiteSpace=wrap;html=1;" vertex="1" parent="1">
          <mxGeometry x="795" y="590" width="120" height="50" as="geometry" />
        </mxCell>
        <mxCell id="3AcVwT8jO_-NW-0-wbM--61" value="&lt;u&gt;Number&lt;/u&gt;" style="text;html=1;align=center;verticalAlign=middle;whiteSpace=wrap;rounded=0;" vertex="1" parent="1">
          <mxGeometry x="815" y="600" width="80" height="30" as="geometry" />
        </mxCell>
        <mxCell id="3AcVwT8jO_-NW-0-wbM--62" value="" style="ellipse;whiteSpace=wrap;html=1;" vertex="1" parent="1">
          <mxGeometry x="940" y="590" width="120" height="50" as="geometry" />
        </mxCell>
        <mxCell id="3AcVwT8jO_-NW-0-wbM--63" value="Location" style="text;html=1;align=center;verticalAlign=middle;whiteSpace=wrap;rounded=0;" vertex="1" parent="1">
          <mxGeometry x="960" y="600" width="80" height="30" as="geometry" />
        </mxCell>
        <mxCell id="3AcVwT8jO_-NW-0-wbM--64" value="" style="endArrow=none;html=1;rounded=0;entryX=0.5;entryY=1;entryDx=0;entryDy=0;exitX=0.5;exitY=0;exitDx=0;exitDy=0;" edge="1" parent="1" source="3AcVwT8jO_-NW-0-wbM--1" target="3AcVwT8jO_-NW-0-wbM--4">
          <mxGeometry width="50" height="50" relative="1" as="geometry">
            <mxPoint x="80" y="315" as="sourcePoint" />
            <mxPoint x="130" y="265" as="targetPoint" />
          </mxGeometry>
        </mxCell>
        <mxCell id="3AcVwT8jO_-NW-0-wbM--65" value="" style="endArrow=none;html=1;rounded=0;exitX=0.5;exitY=0;exitDx=0;exitDy=0;" edge="1" parent="1" source="3AcVwT8jO_-NW-0-wbM--1">
          <mxGeometry width="50" height="50" relative="1" as="geometry">
            <mxPoint x="140" y="250" as="sourcePoint" />
            <mxPoint x="190" y="200" as="targetPoint" />
          </mxGeometry>
        </mxCell>
        <mxCell id="3AcVwT8jO_-NW-0-wbM--66" value="" style="endArrow=none;html=1;rounded=0;entryX=0.5;entryY=1;entryDx=0;entryDy=0;" edge="1" parent="1" target="3AcVwT8jO_-NW-0-wbM--8">
          <mxGeometry width="50" height="50" relative="1" as="geometry">
            <mxPoint x="220" y="310" as="sourcePoint" />
            <mxPoint x="270" y="260" as="targetPoint" />
          </mxGeometry>
        </mxCell>
        <mxCell id="3AcVwT8jO_-NW-0-wbM--67" value="" style="endArrow=none;html=1;rounded=0;" edge="1" parent="1">
          <mxGeometry width="50" height="50" relative="1" as="geometry">
            <mxPoint x="170" y="400" as="sourcePoint" />
            <mxPoint x="220" y="350" as="targetPoint" />
          </mxGeometry>
        </mxCell>
        <mxCell id="3AcVwT8jO_-NW-0-wbM--68" value="" style="endArrow=none;html=1;rounded=0;exitX=0.5;exitY=0;exitDx=0;exitDy=0;" edge="1" parent="1" source="3AcVwT8jO_-NW-0-wbM--16">
          <mxGeometry width="50" height="50" relative="1" as="geometry">
            <mxPoint x="170" y="400" as="sourcePoint" />
            <mxPoint x="220" y="350" as="targetPoint" />
          </mxGeometry>
        </mxCell>
        <mxCell id="3AcVwT8jO_-NW-0-wbM--70" value="" style="endArrow=none;html=1;rounded=0;exitX=0.5;exitY=0;exitDx=0;exitDy=0;" edge="1" parent="1" source="3AcVwT8jO_-NW-0-wbM--14">
          <mxGeometry width="50" height="50" relative="1" as="geometry">
            <mxPoint x="310" y="320" as="sourcePoint" />
            <mxPoint x="220" y="350" as="targetPoint" />
          </mxGeometry>
        </mxCell>
        <mxCell id="3AcVwT8jO_-NW-0-wbM--71" value="" style="endArrow=none;html=1;rounded=0;entryX=0;entryY=0.5;entryDx=0;entryDy=0;" edge="1" parent="1" target="3AcVwT8jO_-NW-0-wbM--20">
          <mxGeometry width="50" height="50" relative="1" as="geometry">
            <mxPoint x="300" y="310" as="sourcePoint" />
            <mxPoint x="440" y="270" as="targetPoint" />
          </mxGeometry>
        </mxCell>
        <mxCell id="3AcVwT8jO_-NW-0-wbM--72" value="" style="endArrow=none;html=1;rounded=0;exitX=0;exitY=0.5;exitDx=0;exitDy=0;" edge="1" parent="1" source="3AcVwT8jO_-NW-0-wbM--21">
          <mxGeometry width="50" height="50" relative="1" as="geometry">
            <mxPoint x="430" y="430" as="sourcePoint" />
            <mxPoint x="300" y="350" as="targetPoint" />
          </mxGeometry>
        </mxCell>
        <mxCell id="3AcVwT8jO_-NW-0-wbM--73" value="" style="endArrow=none;html=1;rounded=0;exitX=1;exitY=0.5;exitDx=0;exitDy=0;" edge="1" parent="1" source="3AcVwT8jO_-NW-0-wbM--20">
          <mxGeometry width="50" height="50" relative="1" as="geometry">
            <mxPoint x="730" y="360" as="sourcePoint" />
            <mxPoint x="780" y="310" as="targetPoint" />
          </mxGeometry>
        </mxCell>
        <mxCell id="3AcVwT8jO_-NW-0-wbM--74" value="" style="endArrow=none;html=1;rounded=0;exitX=1;exitY=0.5;exitDx=0;exitDy=0;" edge="1" parent="1" source="3AcVwT8jO_-NW-0-wbM--21">
          <mxGeometry width="50" height="50" relative="1" as="geometry">
            <mxPoint x="730" y="400" as="sourcePoint" />
            <mxPoint x="780" y="350" as="targetPoint" />
          </mxGeometry>
        </mxCell>
        <mxCell id="3AcVwT8jO_-NW-0-wbM--75" value="" style="endArrow=none;html=1;rounded=0;entryX=0.021;entryY=0.521;entryDx=0;entryDy=0;entryPerimeter=0;exitX=1.001;exitY=0.114;exitDx=0;exitDy=0;exitPerimeter=0;" edge="1" parent="1" source="3AcVwT8jO_-NW-0-wbM--1" target="3AcVwT8jO_-NW-0-wbM--20">
          <mxGeometry width="50" height="50" relative="1" as="geometry">
            <mxPoint x="300" y="320" as="sourcePoint" />
            <mxPoint x="350" y="270" as="targetPoint" />
          </mxGeometry>
        </mxCell>
        <mxCell id="3AcVwT8jO_-NW-0-wbM--76" value="" style="endArrow=none;html=1;rounded=0;entryX=-0.004;entryY=0.106;entryDx=0;entryDy=0;entryPerimeter=0;exitX=0.972;exitY=0.528;exitDx=0;exitDy=0;exitPerimeter=0;" edge="1" parent="1" source="3AcVwT8jO_-NW-0-wbM--20" target="3AcVwT8jO_-NW-0-wbM--32">
          <mxGeometry width="50" height="50" relative="1" as="geometry">
            <mxPoint x="730" y="350" as="sourcePoint" />
            <mxPoint x="780" y="300" as="targetPoint" />
          </mxGeometry>
        </mxCell>
        <mxCell id="3AcVwT8jO_-NW-0-wbM--77" value="" style="endArrow=none;html=1;rounded=0;entryX=0.001;entryY=0.891;entryDx=0;entryDy=0;entryPerimeter=0;exitX=0.974;exitY=0.471;exitDx=0;exitDy=0;exitPerimeter=0;" edge="1" parent="1" source="3AcVwT8jO_-NW-0-wbM--21" target="3AcVwT8jO_-NW-0-wbM--32">
          <mxGeometry width="50" height="50" relative="1" as="geometry">
            <mxPoint x="660" y="370" as="sourcePoint" />
            <mxPoint x="710" y="320" as="targetPoint" />
          </mxGeometry>
        </mxCell>
        <mxCell id="3AcVwT8jO_-NW-0-wbM--84" value="" style="ellipse;whiteSpace=wrap;html=1;" vertex="1" parent="1">
          <mxGeometry x="250" y="120" width="120" height="50" as="geometry" />
        </mxCell>
        <mxCell id="3AcVwT8jO_-NW-0-wbM--85" value="Fname" style="text;html=1;align=center;verticalAlign=middle;whiteSpace=wrap;rounded=0;" vertex="1" parent="1">
          <mxGeometry x="270" y="130" width="80" height="30" as="geometry" />
        </mxCell>
        <mxCell id="3AcVwT8jO_-NW-0-wbM--88" value="" style="ellipse;whiteSpace=wrap;html=1;" vertex="1" parent="1">
          <mxGeometry x="390" y="120" width="120" height="50" as="geometry" />
        </mxCell>
        <mxCell id="3AcVwT8jO_-NW-0-wbM--89" value="Lname" style="text;html=1;align=center;verticalAlign=middle;whiteSpace=wrap;rounded=0;" vertex="1" parent="1">
          <mxGeometry x="410" y="130" width="80" height="30" as="geometry" />
        </mxCell>
        <mxCell id="3AcVwT8jO_-NW-0-wbM--90" value="" style="endArrow=none;html=1;rounded=0;exitX=0.5;exitY=0;exitDx=0;exitDy=0;" edge="1" parent="1" source="3AcVwT8jO_-NW-0-wbM--8">
          <mxGeometry width="50" height="50" relative="1" as="geometry">
            <mxPoint x="260" y="220" as="sourcePoint" />
            <mxPoint x="310" y="170" as="targetPoint" />
          </mxGeometry>
        </mxCell>
        <mxCell id="3AcVwT8jO_-NW-0-wbM--91" value="" style="endArrow=none;html=1;rounded=0;exitX=0.5;exitY=0;exitDx=0;exitDy=0;" edge="1" parent="1" source="3AcVwT8jO_-NW-0-wbM--8">
          <mxGeometry width="50" height="50" relative="1" as="geometry">
            <mxPoint x="400" y="220" as="sourcePoint" />
            <mxPoint x="450" y="170" as="targetPoint" />
          </mxGeometry>
        </mxCell>
        <mxCell id="3AcVwT8jO_-NW-0-wbM--93" value="" style="ellipse;whiteSpace=wrap;html=1;" vertex="1" parent="1">
          <mxGeometry x="360" y="320" width="120" height="50" as="geometry" />
        </mxCell>
        <mxCell id="3AcVwT8jO_-NW-0-wbM--94" value="Start_date" style="text;html=1;align=center;verticalAlign=middle;whiteSpace=wrap;rounded=0;" vertex="1" parent="1">
          <mxGeometry x="380" y="330" width="80" height="30" as="geometry" />
        </mxCell>
        <mxCell id="3AcVwT8jO_-NW-0-wbM--95" value="" style="rhombus;whiteSpace=wrap;html=1;" vertex="1" parent="1">
          <mxGeometry x="440" y="490" width="200" height="80" as="geometry" />
        </mxCell>
        <mxCell id="3AcVwT8jO_-NW-0-wbM--96" value="" style="endArrow=none;html=1;rounded=0;entryX=0.021;entryY=0.489;entryDx=0;entryDy=0;entryPerimeter=0;" edge="1" parent="1" target="3AcVwT8jO_-NW-0-wbM--95">
          <mxGeometry width="50" height="50" relative="1" as="geometry">
            <mxPoint x="300" y="350" as="sourcePoint" />
            <mxPoint x="420" y="410" as="targetPoint" />
          </mxGeometry>
        </mxCell>
        <mxCell id="3AcVwT8jO_-NW-0-wbM--99" value="" style="endArrow=none;html=1;rounded=0;entryX=0.98;entryY=1.011;entryDx=0;entryDy=0;entryPerimeter=0;exitX=0;exitY=0.5;exitDx=0;exitDy=0;" edge="1" parent="1" source="3AcVwT8jO_-NW-0-wbM--95" target="3AcVwT8jO_-NW-0-wbM--1">
          <mxGeometry width="50" height="50" relative="1" as="geometry">
            <mxPoint x="430.1184895833333" y="610" as="sourcePoint" />
            <mxPoint x="380" y="360" as="targetPoint" />
          </mxGeometry>
        </mxCell>
        <mxCell id="3AcVwT8jO_-NW-0-wbM--103" value="" style="endArrow=none;html=1;rounded=0;entryX=-0.002;entryY=0.428;entryDx=0;entryDy=0;entryPerimeter=0;exitX=0.977;exitY=0.479;exitDx=0;exitDy=0;exitPerimeter=0;" edge="1" parent="1" source="3AcVwT8jO_-NW-0-wbM--95" target="3AcVwT8jO_-NW-0-wbM--54">
          <mxGeometry width="50" height="50" relative="1" as="geometry">
            <mxPoint x="730" y="570" as="sourcePoint" />
            <mxPoint x="780" y="520" as="targetPoint" />
          </mxGeometry>
        </mxCell>
        <mxCell id="3AcVwT8jO_-NW-0-wbM--105" value="" style="endArrow=none;html=1;rounded=0;entryX=0;entryY=0.51;entryDx=0;entryDy=0;entryPerimeter=0;exitX=0.98;exitY=0.518;exitDx=0;exitDy=0;exitPerimeter=0;" edge="1" parent="1" source="3AcVwT8jO_-NW-0-wbM--95" target="3AcVwT8jO_-NW-0-wbM--54">
          <mxGeometry width="50" height="50" relative="1" as="geometry">
            <mxPoint x="638" y="530.5" as="sourcePoint" />
            <mxPoint x="780" y="529.5" as="targetPoint" />
          </mxGeometry>
        </mxCell>
        <mxCell id="3AcVwT8jO_-NW-0-wbM--106" value="WORKS _FOR" style="text;html=1;align=center;verticalAlign=middle;whiteSpace=wrap;rounded=0;" vertex="1" parent="1">
          <mxGeometry x="470" y="235" width="130" height="30" as="geometry" />
        </mxCell>
        <mxCell id="3AcVwT8jO_-NW-0-wbM--107" value="MANAGES" style="text;html=1;align=center;verticalAlign=middle;whiteSpace=wrap;rounded=0;" vertex="1" parent="1">
          <mxGeometry x="480" y="395" width="130" height="30" as="geometry" />
        </mxCell>
        <mxCell id="3AcVwT8jO_-NW-0-wbM--108" value="WORKS_ON" style="text;html=1;align=center;verticalAlign=middle;whiteSpace=wrap;rounded=0;" vertex="1" parent="1">
          <mxGeometry x="475" y="515" width="130" height="30" as="geometry" />
        </mxCell>
        <mxCell id="3AcVwT8jO_-NW-0-wbM--109" value="CONTROLS" style="text;html=1;align=center;verticalAlign=middle;whiteSpace=wrap;rounded=0;" vertex="1" parent="1">
          <mxGeometry x="795" y="415" width="130" height="30" as="geometry" />
        </mxCell>
        <mxCell id="3AcVwT8jO_-NW-0-wbM--110" value="" style="endArrow=none;html=1;rounded=0;entryX=0.5;entryY=0;entryDx=0;entryDy=0;exitX=0.997;exitY=0.531;exitDx=0;exitDy=0;exitPerimeter=0;" edge="1" parent="1" source="3AcVwT8jO_-NW-0-wbM--93" target="3AcVwT8jO_-NW-0-wbM--21">
          <mxGeometry width="50" height="50" relative="1" as="geometry">
            <mxPoint x="480" y="350" as="sourcePoint" />
            <mxPoint x="530" y="300" as="targetPoint" />
          </mxGeometry>
        </mxCell>
        <mxCell id="3AcVwT8jO_-NW-0-wbM--111" value="" style="ellipse;whiteSpace=wrap;html=1;" vertex="1" parent="1">
          <mxGeometry x="610" y="435" width="120" height="50" as="geometry" />
        </mxCell>
        <mxCell id="3AcVwT8jO_-NW-0-wbM--112" value="Hours" style="text;html=1;align=center;verticalAlign=middle;whiteSpace=wrap;rounded=0;" vertex="1" parent="1">
          <mxGeometry x="630" y="445" width="80" height="30" as="geometry" />
        </mxCell>
        <mxCell id="3AcVwT8jO_-NW-0-wbM--113" value="" style="endArrow=none;html=1;rounded=0;entryX=0.001;entryY=0.519;entryDx=0;entryDy=0;entryPerimeter=0;" edge="1" parent="1" target="3AcVwT8jO_-NW-0-wbM--111">
          <mxGeometry width="50" height="50" relative="1" as="geometry">
            <mxPoint x="540" y="490" as="sourcePoint" />
            <mxPoint x="590" y="440" as="targetPoint" />
          </mxGeometry>
        </mxCell>
        <mxCell id="3AcVwT8jO_-NW-0-wbM--114" value="" style="endArrow=none;html=1;rounded=0;exitX=0.563;exitY=-0.002;exitDx=0;exitDy=0;exitPerimeter=0;" edge="1" parent="1" source="3AcVwT8jO_-NW-0-wbM--32">
          <mxGeometry width="50" height="50" relative="1" as="geometry">
            <mxPoint x="820" y="260" as="sourcePoint" />
            <mxPoint x="870" y="210" as="targetPoint" />
          </mxGeometry>
        </mxCell>
        <mxCell id="3AcVwT8jO_-NW-0-wbM--115" value="" style="endArrow=none;html=1;rounded=0;exitX=0.563;exitY=-0.006;exitDx=0;exitDy=0;exitPerimeter=0;entryX=0.902;entryY=0.805;entryDx=0;entryDy=0;entryPerimeter=0;" edge="1" parent="1" source="3AcVwT8jO_-NW-0-wbM--32" target="3AcVwT8jO_-NW-0-wbM--34">
          <mxGeometry width="50" height="50" relative="1" as="geometry">
            <mxPoint x="770" y="300" as="sourcePoint" />
            <mxPoint x="820" y="250" as="targetPoint" />
          </mxGeometry>
        </mxCell>
        <mxCell id="3AcVwT8jO_-NW-0-wbM--116" value="" style="endArrow=none;html=1;rounded=0;entryX=0.098;entryY=0.824;entryDx=0;entryDy=0;entryPerimeter=0;" edge="1" parent="1" target="3AcVwT8jO_-NW-0-wbM--38">
          <mxGeometry width="50" height="50" relative="1" as="geometry">
            <mxPoint x="870" y="310" as="sourcePoint" />
            <mxPoint x="920" y="260" as="targetPoint" />
          </mxGeometry>
        </mxCell>
        <mxCell id="3AcVwT8jO_-NW-0-wbM--118" value="" style="endArrow=none;html=1;rounded=0;entryX=0.5;entryY=1;entryDx=0;entryDy=0;exitX=0.5;exitY=0;exitDx=0;exitDy=0;" edge="1" parent="1" source="3AcVwT8jO_-NW-0-wbM--51" target="3AcVwT8jO_-NW-0-wbM--32">
          <mxGeometry width="50" height="50" relative="1" as="geometry">
            <mxPoint x="840" y="410" as="sourcePoint" />
            <mxPoint x="890" y="360" as="targetPoint" />
          </mxGeometry>
        </mxCell>
        <mxCell id="3AcVwT8jO_-NW-0-wbM--119" value="" style="endArrow=none;html=1;rounded=0;exitX=0.5;exitY=0;exitDx=0;exitDy=0;shape=link;" edge="1" parent="1" source="3AcVwT8jO_-NW-0-wbM--54">
          <mxGeometry width="50" height="50" relative="1" as="geometry">
            <mxPoint x="810" y="520" as="sourcePoint" />
            <mxPoint x="860" y="470" as="targetPoint" />
          </mxGeometry>
        </mxCell>
        <mxCell id="3AcVwT8jO_-NW-0-wbM--120" value="" style="endArrow=none;html=1;rounded=0;" edge="1" parent="1" source="3AcVwT8jO_-NW-0-wbM--58">
          <mxGeometry width="50" height="50" relative="1" as="geometry">
            <mxPoint x="810" y="600" as="sourcePoint" />
            <mxPoint x="860" y="550" as="targetPoint" />
          </mxGeometry>
        </mxCell>
        <mxCell id="3AcVwT8jO_-NW-0-wbM--121" value="" style="endArrow=none;html=1;rounded=0;entryX=0.5;entryY=1;entryDx=0;entryDy=0;exitX=0.54;exitY=0.007;exitDx=0;exitDy=0;exitPerimeter=0;" edge="1" parent="1" source="3AcVwT8jO_-NW-0-wbM--60" target="3AcVwT8jO_-NW-0-wbM--54">
          <mxGeometry width="50" height="50" relative="1" as="geometry">
            <mxPoint x="850" y="610" as="sourcePoint" />
            <mxPoint x="900" y="560" as="targetPoint" />
          </mxGeometry>
        </mxCell>
        <mxCell id="3AcVwT8jO_-NW-0-wbM--122" value="" style="endArrow=none;html=1;rounded=0;exitX=0.269;exitY=0.057;exitDx=0;exitDy=0;exitPerimeter=0;" edge="1" parent="1" source="3AcVwT8jO_-NW-0-wbM--62">
          <mxGeometry width="50" height="50" relative="1" as="geometry">
            <mxPoint x="810" y="600" as="sourcePoint" />
            <mxPoint x="860" y="550" as="targetPoint" />
          </mxGeometry>
        </mxCell>
        <mxCell id="3AcVwT8jO_-NW-0-wbM--124" value="&lt;font style=&quot;font-size: 15px;&quot;&gt;N&lt;/font&gt;" style="text;html=1;align=center;verticalAlign=middle;whiteSpace=wrap;rounded=0;" vertex="1" parent="1">
          <mxGeometry x="390" y="230" width="60" height="30" as="geometry" />
        </mxCell>
        <mxCell id="3AcVwT8jO_-NW-0-wbM--125" value="&lt;font style=&quot;font-size: 15px;&quot;&gt;N&lt;/font&gt;" style="text;html=1;align=center;verticalAlign=middle;whiteSpace=wrap;rounded=0;" vertex="1" parent="1">
          <mxGeometry x="855" y="460" width="60" height="30" as="geometry" />
        </mxCell>
        <mxCell id="3AcVwT8jO_-NW-0-wbM--126" value="&lt;font style=&quot;font-size: 15px;&quot;&gt;1&lt;/font&gt;" style="text;html=1;align=center;verticalAlign=middle;whiteSpace=wrap;rounded=0;" vertex="1" parent="1">
          <mxGeometry x="620" y="230" width="60" height="30" as="geometry" />
        </mxCell>
        <mxCell id="3AcVwT8jO_-NW-0-wbM--127" value="&lt;font style=&quot;font-size: 15px;&quot;&gt;1&lt;/font&gt;" style="text;html=1;align=center;verticalAlign=middle;whiteSpace=wrap;rounded=0;" vertex="1" parent="1">
          <mxGeometry x="605" y="380" width="60" height="30" as="geometry" />
        </mxCell>
        <mxCell id="3AcVwT8jO_-NW-0-wbM--128" value="&lt;font style=&quot;font-size: 15px;&quot;&gt;1&lt;/font&gt;" style="text;html=1;align=center;verticalAlign=middle;whiteSpace=wrap;rounded=0;" vertex="1" parent="1">
          <mxGeometry x="400" y="380" width="60" height="30" as="geometry" />
        </mxCell>
        <mxCell id="3AcVwT8jO_-NW-0-wbM--129" value="&lt;font style=&quot;font-size: 15px;&quot;&gt;1&lt;/font&gt;" style="text;html=1;align=center;verticalAlign=middle;whiteSpace=wrap;rounded=0;" vertex="1" parent="1">
          <mxGeometry x="840" y="345" width="60" height="30" as="geometry" />
        </mxCell>
        <mxCell id="3AcVwT8jO_-NW-0-wbM--130" value="&lt;font style=&quot;font-size: 15px;&quot;&gt;M&lt;/font&gt;" style="text;html=1;align=center;verticalAlign=middle;whiteSpace=wrap;rounded=0;" vertex="1" parent="1">
          <mxGeometry x="415" y="490" width="60" height="30" as="geometry" />
        </mxCell>
        <mxCell id="3AcVwT8jO_-NW-0-wbM--131" value="&lt;font style=&quot;font-size: 15px;&quot;&gt;N&lt;/font&gt;" style="text;html=1;align=center;verticalAlign=middle;whiteSpace=wrap;rounded=0;" vertex="1" parent="1">
          <mxGeometry x="620" y="500" width="60" height="30" as="geometry" />
        </mxCell>
        <mxCell id="3AcVwT8jO_-NW-0-wbM--134" value="&lt;font style=&quot;font-size: 16px;&quot;&gt;Fig1. Database - modeling: Entity Relationship diagram&lt;/font&gt;" style="text;html=1;align=center;verticalAlign=middle;whiteSpace=wrap;rounded=0;" vertex="1" parent="1">
          <mxGeometry x="290" y="670" width="460" height="50" as="geometry" />
        </mxCell>
      </root>
    </mxGraphModel>
  </diagram>
</mxfile>
